<svg width="29" height="29" viewBox="0 0 29 29" fill="none" xmlns="http://www.w3.org/2000/svg">
<path d="M11.6133 21.44L8.99992 18.2933L5.33325 23H19.9999L15.2799 16.72L11.6133 21.44Z" fill="#F1F0F5"/>
<path opacity="0.3" d="M19.9999 23H5.33325L8.99992 18.2933L11.6133 21.44L15.2799 16.72L19.9999 23ZM20.6666 8.33333H16.6666V7H3.33325V25.6667H21.9999V12.3333H20.6666V8.33333Z" fill="#F1F0F5"/>
<path d="M24.6667 4.33337V0.333374H22.0001V4.33337H18.0001V7.00004H22.0001V10.9867H24.6667V7.00004H28.6667V4.33337H24.6667ZM22.0001 25.6667H3.33341V7.00004H16.6667V4.33337H3.33341C1.86675 4.33337 0.666748 5.53337 0.666748 7.00004V25.6667C0.666748 27.1334 1.86675 28.3334 3.33341 28.3334H22.0001C23.4667 28.3334 24.6667 27.1334 24.6667 25.6667V12.3334H22.0001V25.6667Z" fill="#F1F0F5"/>
</svg>
