<svg width="28" height="19" viewBox="0 0 28 19" fill="none" xmlns="http://www.w3.org/2000/svg">
<path d="M22.75 2.75H12.75V11.5H2.75V0.25H0.25V19H2.75V15.25H25.25V19H27.75V7.75C27.75 6.42392 27.2232 5.15215 26.2855 4.21447C25.3479 3.27678 24.0761 2.75 22.75 2.75ZM7.75 10.25C8.74456 10.25 9.69839 9.85491 10.4017 9.15165C11.1049 8.44839 11.5 7.49456 11.5 6.5C11.5 5.50544 11.1049 4.55161 10.4017 3.84835C9.69839 3.14509 8.74456 2.75 7.75 2.75C6.75544 2.75 5.80161 3.14509 5.09835 3.84835C4.39509 4.55161 4 5.50544 4 6.5C4 7.49456 4.39509 8.44839 5.09835 9.15165C5.80161 9.85491 6.75544 10.25 7.75 10.25Z" fill="#F1F0F5"/>
</svg>
