<svg width="50" height="50" viewBox="0 0 50 50" fill="none" xmlns="http://www.w3.org/2000/svg">
<path d="M5.00016 22.5C5.63736 22.5007 6.25024 22.7447 6.71358 23.1821C7.17692 23.6195 7.45575 24.2174 7.49309 24.8535C7.53043 25.4896 7.32347 26.1159 6.9145 26.6046C6.50552 27.0932 5.9254 27.4072 5.29266 27.4825L5.00016 27.5H2.50016C1.86296 27.4993 1.25008 27.2553 0.786739 26.8179C0.323399 26.3805 0.0445726 25.7826 0.00722978 25.1465C-0.030113 24.5104 0.176847 23.884 0.585822 23.3954C0.994798 22.9068 1.57492 22.5928 2.20766 22.5175L2.50016 22.5H5.00016ZM25.0002 0C25.6125 8.07764e-05 26.2035 0.22489 26.6611 0.631788C27.1187 1.03869 27.411 1.59937 27.4827 2.2075L27.5002 2.5V5C27.4995 5.6372 27.2555 6.25008 26.818 6.71342C26.3806 7.17676 25.7828 7.45559 25.1467 7.49293C24.5106 7.53027 23.8842 7.32331 23.3956 6.91434C22.9069 6.50536 22.5929 5.92524 22.5177 5.2925L22.5002 5V2.5C22.5002 1.83696 22.7636 1.20107 23.2324 0.732233C23.7012 0.263392 24.3371 0 25.0002 0ZM47.5002 22.5C48.1374 22.5007 48.7502 22.7447 49.2136 23.1821C49.6769 23.6195 49.9557 24.2174 49.9931 24.8535C50.0304 25.4896 49.8235 26.1159 49.4145 26.6046C49.0055 27.0932 48.4254 27.4072 47.7927 27.4825L47.5002 27.5H45.0002C44.363 27.4993 43.7501 27.2553 43.2867 26.8179C42.8234 26.3805 42.5446 25.7826 42.5072 25.1465C42.4699 24.5104 42.6768 23.884 43.0858 23.3954C43.4948 22.9068 44.0749 22.5928 44.7077 22.5175L45.0002 22.5H47.5002ZM7.23266 7.2325C7.66314 6.80206 8.23589 6.54348 8.84346 6.50528C9.45102 6.46707 10.0517 6.65187 10.5327 7.025L10.7677 7.2325L12.5177 8.9825C12.966 9.43239 13.2263 10.0361 13.2457 10.671C13.2651 11.3058 13.0421 11.9243 12.622 12.4007C12.202 12.8771 11.6163 13.1758 10.984 13.236C10.3517 13.2962 9.72014 13.1135 9.21766 12.725L8.98266 12.5175L7.23266 10.7675C6.76398 10.2987 6.50069 9.66291 6.50069 9C6.50069 8.33709 6.76398 7.70132 7.23266 7.2325ZM39.2327 7.2325C39.6826 6.78413 40.2862 6.52382 40.9211 6.50443C41.556 6.48504 42.1744 6.70804 42.6509 7.12812C43.1273 7.54821 43.4259 8.13388 43.4862 8.76619C43.5464 9.39849 43.3637 10.03 42.9752 10.5325L42.7677 10.7675L41.0177 12.5175C40.5678 12.9659 39.9641 13.2262 39.3292 13.2456C38.6943 13.265 38.0759 13.042 37.5995 12.6219C37.123 12.2018 36.8244 11.6161 36.7642 10.9838C36.7039 10.3515 36.8866 9.71998 37.2752 9.2175L37.4827 8.9825L39.2327 7.2325ZM30.0002 40C30.6632 40 31.2991 40.2634 31.7679 40.7322C32.2368 41.2011 32.5002 41.837 32.5002 42.5C32.5002 44.4891 31.71 46.3968 30.3035 47.8033C28.8969 49.2098 26.9893 50 25.0002 50C23.011 50 21.1034 49.2098 19.6969 47.8033C18.2903 46.3968 17.5002 44.4891 17.5002 42.5C17.5002 41.8877 17.7251 41.2967 18.1319 40.8391C18.5388 40.3815 19.0995 40.0891 19.7077 40.0175L20.0002 40H30.0002ZM25.0002 10C28.1484 10 31.2168 10.9906 33.7708 12.8314C36.3248 14.6722 38.2349 17.2699 39.2304 20.2566C40.226 23.2433 40.2566 26.4675 39.3179 29.4725C38.3792 32.4775 36.5188 35.1111 34.0002 37C33.6556 37.2588 33.25 37.4242 32.8227 37.48L32.5002 37.5H17.5002C16.9592 37.5 16.4329 37.3245 16.0002 37C13.4816 35.1111 11.6212 32.4775 10.6825 29.4725C9.74375 26.4675 9.77435 23.2433 10.7699 20.2566C11.7655 17.2699 13.6755 14.6722 16.2295 12.8314C18.7835 10.9906 21.8519 10 25.0002 10Z" fill="#FF9900"/>
</svg>
