<svg width="24" height="23" viewBox="0 0 24 23" fill="none" xmlns="http://www.w3.org/2000/svg">
<path d="M6.351 1.7604e-08C5.58302 -1.71685e-05 4.83636 0.252557 4.2261 0.718789C3.61584 1.18502 3.17587 1.83903 2.974 2.58L1.758 7.037C1.918 7.013 2.083 7 2.25 7H6.75C7.17688 6.99987 7.5996 7.08384 7.99403 7.2471C8.38845 7.41037 8.74685 7.64975 9.04874 7.95155C9.35064 8.25335 9.59012 8.61168 9.75351 9.00605C9.9169 9.40042 10.001 9.82312 10.001 10.25V18H19.997C22.635 18 24.551 15.492 23.857 12.948L21.029 2.579C20.8269 1.83822 20.3869 1.18443 19.7767 0.718392C19.1664 0.252353 18.4198 -7.69681e-05 17.652 1.7604e-08H6.351ZM9.991 21C9.99787 20.9168 10.0012 20.8334 10.001 20.75V19.5H18.251C18.4499 19.5 18.6407 19.579 18.7813 19.7197C18.922 19.8603 19.001 20.0511 19.001 20.25C19.001 20.4489 18.922 20.6397 18.7813 20.7803C18.6407 20.921 18.4499 21 18.251 21H9.991ZM4.501 14C4.89882 14 5.28036 13.842 5.56166 13.5607C5.84296 13.2794 6.001 12.8978 6.001 12.5C6.001 12.1022 5.84296 11.7206 5.56166 11.4393C5.28036 11.158 4.89882 11 4.501 11C4.10318 11 3.72164 11.158 3.44034 11.4393C3.15904 11.7206 3.001 12.1022 3.001 12.5C3.001 12.8978 3.15904 13.2794 3.44034 13.5607C3.72164 13.842 4.10318 14 4.501 14ZM0 10.25C0 9.65326 0.237053 9.08097 0.65901 8.65901C1.08097 8.23705 1.65326 8 2.25 8H6.75C7.34674 8 7.91903 8.23705 8.34099 8.65901C8.76295 9.08097 9 9.65326 9 10.25V20.75C9 21.3467 8.76295 21.919 8.34099 22.341C7.91903 22.7629 7.34674 23 6.75 23H2.25C1.65326 23 1.08097 22.7629 0.65901 22.341C0.237053 21.919 0 21.3467 0 20.75V10.25ZM2.25 9.5C2.05109 9.5 1.86032 9.57902 1.71967 9.71967C1.57902 9.86032 1.5 10.0511 1.5 10.25V20.75C1.5 21.164 1.836 21.5 2.25 21.5H6.75C6.94891 21.5 7.13968 21.421 7.28033 21.2803C7.42098 21.1397 7.5 20.9489 7.5 20.75V10.25C7.5 10.0511 7.42098 9.86032 7.28033 9.71967C7.13968 9.57902 6.94891 9.5 6.75 9.5H2.25Z" fill="#F1F0F5"/>
</svg>
