<svg width="46" height="46" viewBox="0 0 46 46" fill="none" xmlns="http://www.w3.org/2000/svg">
<path d="M0.5 45.5V40.5H5.5V0.5H40.5V40.5H45.5V45.5H0.5ZM30.5 40.5H35.5V5.5H30.5V40.5ZM20.5 25.5C21.2083 25.5 21.8025 25.26 22.2825 24.78C22.7625 24.3 23.0017 23.7067 23 23C23 22.2917 22.76 21.6983 22.28 21.22C21.8 20.7417 21.2067 20.5017 20.5 20.5C19.7917 20.5 19.1983 20.74 18.72 21.22C18.2417 21.7 18.0017 22.2933 18 23C18 23.7083 18.24 24.3025 18.72 24.7825C19.2 25.2625 19.7933 25.5017 20.5 25.5Z" fill="#F1F0F5"/>
</svg>
