<svg width="250" height="250" viewBox="0 0 250 250" fill="none" xmlns="http://www.w3.org/2000/svg">
<path d="M112.25 118.625C84.6208 99.5 35.75 48.5 86.75 10.25C99.806 0.458024 137.75 -8.87498 169.625 23C181.776 35.1508 177.721 47.2123 150.5 67.625C138.235 76.8178 121.175 91.85 131.375 112.25C150.5 84.6335 201.5 35.75 239.75 86.75C249.542 99.8188 258.875 137.75 227 169.625C214.849 181.776 202.788 177.721 182.375 150.5C173.182 138.247 158.15 121.175 137.75 131.375C165.379 150.5 214.25 201.5 163.25 239.75C150.181 249.555 112.25 258.875 80.375 227C68.2243 214.849 72.2788 202.801 99.5 182.375C111.753 173.195 128.825 158.15 118.625 137.75C99.5 165.379 48.5 214.25 10.25 163.25C0.458024 150.194 -8.87498 112.25 23 80.375C35.1508 68.2243 47.2123 72.2788 67.625 99.5C76.8178 111.766 91.85 128.825 112.25 118.625Z" fill="white"/>
</svg>
