<svg width="26" height="26" viewBox="0 0 26 26" fill="none" xmlns="http://www.w3.org/2000/svg">
<path opacity="0.5" d="M0.5 13.255C0.5 10.3938 0.5 8.96375 1.15 7.77875C1.7975 6.5925 2.98375 5.8575 5.355 4.385L7.855 2.83375C10.3612 1.2775 11.615 0.5 13 0.5C14.385 0.5 15.6375 1.2775 18.145 2.83375L20.645 4.385C23.0162 5.8575 24.2025 6.5925 24.8513 7.77875C25.5 8.96375 25.5 10.3938 25.5 13.2537V15.1562C25.5 20.0312 25.5 22.47 24.035 23.985C22.5712 25.5 20.2137 25.5 15.5 25.5H10.5C5.78625 25.5 3.42875 25.5 1.965 23.985C0.5 22.47 0.5 20.0325 0.5 15.1562V13.255Z" fill="#F1F0F5"/>
<path d="M13.9375 11.75C13.9375 11.5014 13.8387 11.2629 13.6629 11.0871C13.4871 10.9113 13.2486 10.8125 13 10.8125C12.7514 10.8125 12.5129 10.9113 12.3371 11.0871C12.1613 11.2629 12.0625 11.5014 12.0625 11.75V14.5625H9.25C9.00136 14.5625 8.7629 14.6613 8.58709 14.8371C8.41127 15.0129 8.3125 15.2514 8.3125 15.5C8.3125 15.7486 8.41127 15.9871 8.58709 16.1629C8.7629 16.3387 9.00136 16.4375 9.25 16.4375H12.0625V19.25C12.0625 19.4986 12.1613 19.7371 12.3371 19.9129C12.5129 20.0887 12.7514 20.1875 13 20.1875C13.2486 20.1875 13.4871 20.0887 13.6629 19.9129C13.8387 19.7371 13.9375 19.4986 13.9375 19.25V16.4375H16.75C16.9986 16.4375 17.2371 16.3387 17.4129 16.1629C17.5887 15.9871 17.6875 15.7486 17.6875 15.5C17.6875 15.2514 17.5887 15.0129 17.4129 14.8371C17.2371 14.6613 16.9986 14.5625 16.75 14.5625H13.9375V11.75Z" fill="#F1F0F5"/>
</svg>
