<svg width="30" height="30" viewBox="0 0 30 30" fill="none" xmlns="http://www.w3.org/2000/svg">
<path d="M6.25 26.25H17.5M12.5 26.25L3.75 16.25L14.375 9.375" stroke="#F1F0F5" stroke-width="2" stroke-linecap="round" stroke-linejoin="round"/>
<path d="M16.2501 17.5C13.5651 14.815 13.5651 10.185 16.2501 7.50001C18.8601 4.89001 23.5526 5.03501 26.2501 7.50001L16.2501 17.5Z" stroke="#F1F0F5" stroke-width="2" stroke-linecap="round" stroke-linejoin="round"/>
<path d="M14.6776 9.46752L13.2326 8.02252C12.7636 7.55375 12.5001 6.9179 12.5 6.25484C12.4999 5.59178 12.7632 4.95583 13.2319 4.4869C13.7007 4.01796 14.3366 3.75445 14.9996 3.75433C15.6627 3.75422 16.2986 4.0175 16.7676 4.48627L18.1976 5.91627M19.3751 15L19.6351 15.3425C20.2265 15.9282 21.0252 16.2567 21.8576 16.2567C22.6899 16.2567 23.4886 15.9282 24.0801 15.3425C25.2538 14.1763 25.3051 12.3175 24.2326 11.0925L23.7751 10.6313" stroke="#F1F0F5" stroke-width="2" stroke-linecap="round" stroke-linejoin="round"/>
</svg>
