<svg width="22" height="20" viewBox="0 0 22 20" fill="none" xmlns="http://www.w3.org/2000/svg">
<path fill-rule="evenodd" clip-rule="evenodd" d="M0.600098 7.40002C0.600098 7.05524 0.737061 6.72458 0.980859 6.48079C1.22466 6.23699 1.55532 6.10002 1.9001 6.10002H15.3005C15.6453 6.10002 15.9759 6.23699 16.2197 6.48079C16.4635 6.72458 16.6005 7.05524 16.6005 7.40002C16.6005 7.74481 16.4635 8.07547 16.2197 8.31926C15.9759 8.56306 15.6453 8.70002 15.3005 8.70002H1.9001C1.55532 8.70002 1.22466 8.56306 0.980859 8.31926C0.737061 8.07547 0.600098 7.74481 0.600098 7.40002ZM0.600098 2.20002C0.600098 1.85524 0.737061 1.52458 0.980859 1.28079C1.22466 1.03699 1.55532 0.900024 1.9001 0.900024H20.1001C20.4449 0.900024 20.7755 1.03699 21.0193 1.28079C21.2631 1.52458 21.4001 1.85524 21.4001 2.20002C21.4001 2.54481 21.2631 2.87547 21.0193 3.11926C20.7755 3.36306 20.4449 3.50002 20.1001 3.50002H1.9001C1.55532 3.50002 1.22466 3.36306 0.980859 3.11926C0.737061 2.87547 0.600098 2.54481 0.600098 2.20002ZM0.600098 12.6C0.600098 12.2552 0.737061 11.9246 0.980859 11.6808C1.22466 11.437 1.55532 11.3 1.9001 11.3H20.1001C20.4449 11.3 20.7755 11.437 21.0193 11.6808C21.2631 11.9246 21.4001 12.2552 21.4001 12.6C21.4001 12.9448 21.2631 13.2755 21.0193 13.5193C20.7755 13.7631 20.4449 13.9 20.1001 13.9H1.9001C1.55532 13.9 1.22466 13.7631 0.980859 13.5193C0.737061 13.2755 0.600098 12.9448 0.600098 12.6ZM0.600098 17.8C0.600098 17.4552 0.737061 17.1246 0.980859 16.8808C1.22466 16.637 1.55532 16.5 1.9001 16.5H15.3005C15.6453 16.5 15.9759 16.637 16.2197 16.8808C16.4635 17.1246 16.6005 17.4552 16.6005 17.8C16.6005 18.1448 16.4635 18.4755 16.2197 18.7193C15.9759 18.9631 15.6453 19.1 15.3005 19.1H1.9001C1.55532 19.1 1.22466 18.9631 0.980859 18.7193C0.737061 18.4755 0.600098 18.1448 0.600098 17.8Z" fill="white"/>
</svg>
