<svg width="30" height="30" viewBox="0 0 30 30" fill="none" xmlns="http://www.w3.org/2000/svg">
<path d="M16.2086 1.875H13.8086C11.418 1.875 9.46802 3.81563 9.46802 6.21563V7.6125H13.9305C14.117 7.6125 14.2958 7.68658 14.4277 7.81844C14.5596 7.9503 14.6336 8.12914 14.6336 8.31562C14.6336 8.50211 14.5596 8.68095 14.4277 8.81281C14.2958 8.94467 14.117 9.01875 13.9305 9.01875H9.46802V10.6031H13.9305C14.3243 10.6031 14.6336 10.9125 14.6336 11.3063C14.6336 11.6906 14.3243 12.0094 13.9305 12.0094H9.46802V13.5844H13.9305C14.117 13.5844 14.2958 13.6585 14.4277 13.7903C14.5596 13.9222 14.6336 14.101 14.6336 14.2875C14.6336 14.474 14.5596 14.6528 14.4277 14.7847C14.2958 14.9165 14.117 14.9906 13.9305 14.9906H9.46802V16.2844C9.46802 18.6844 11.4086 20.625 13.8086 20.625H16.2086C18.6086 20.625 20.5493 18.6844 20.5493 16.2844V6.21563C20.5493 3.81563 18.5993 1.875 16.2086 1.875ZM20.5493 7.6125V9.01875H16.0868C15.9003 9.01875 15.7214 8.94467 15.5896 8.81281C15.4577 8.68095 15.3836 8.50211 15.3836 8.31562C15.3836 8.12914 15.4577 7.9503 15.5896 7.81844C15.7214 7.68658 15.9003 7.6125 16.0868 7.6125H20.5493ZM16.0868 10.6031H20.5493V12.0094H16.0868C15.693 12.0094 15.3836 11.6906 15.3836 11.3063C15.3836 10.9125 15.693 10.6031 16.0868 10.6031ZM20.5493 13.5844V14.9906H16.0868C15.9003 14.9906 15.7214 14.9165 15.5896 14.7847C15.4577 14.6528 15.3836 14.474 15.3836 14.2875C15.3836 14.101 15.4577 13.9222 15.5896 13.7903C15.7214 13.6585 15.9003 13.5844 16.0868 13.5844H20.5493Z" fill="#F1F0F5"/>
<path d="M22.4242 12.075C22.6728 12.075 22.9113 12.1738 23.0871 12.3496C23.2629 12.5254 23.3617 12.7639 23.3617 13.0125V17.0344C23.3617 18.7324 22.6872 20.361 21.4866 21.5617C20.286 22.7625 18.6575 23.4373 16.9595 23.4375L12.9648 23.4469C9.43605 23.4469 6.57104 20.5791 6.57104 17.0438V13.0219C6.57104 12.7732 6.66982 12.5348 6.84563 12.359C7.02145 12.1832 7.2599 12.0844 7.50854 12.0844C7.75719 12.0844 7.99564 12.1832 8.17146 12.359C8.34727 12.5348 8.44604 12.7732 8.44604 13.0219V17.0438C8.44555 18.2431 8.92104 19.3935 9.76811 20.2425C10.6152 21.0915 11.7646 21.5697 12.9639 21.5719L16.9576 21.5625C18.1585 21.5625 19.3103 21.0854 20.1595 20.2363C21.0087 19.3871 21.4857 18.2353 21.4857 17.0344V13.0125C21.4857 12.7639 21.5845 12.5254 21.7603 12.3496C21.9361 12.1738 22.1755 12.075 22.4242 12.075ZM10.5835 24.375H12.9554V23.4469H17.071V24.375H19.4335C20.3054 24.375 21.1023 24.8531 21.5054 25.6125L22.4335 27.3188C22.6304 27.6844 22.3679 28.125 21.9554 28.125H8.05229C7.63979 28.125 7.3773 27.6844 7.57417 27.3188L8.5023 25.6125C8.9148 24.8531 9.72104 24.375 10.5835 24.375Z" fill="#F1F0F5"/>
</svg>
