<svg width="20" height="20" viewBox="0 0 20 20" fill="none" xmlns="http://www.w3.org/2000/svg">
<path d="M19.6445 15.0976C19.4704 16.4209 18.8205 17.6356 17.8163 18.5147C16.8121 19.3938 15.5222 19.8774 14.1875 19.875C6.4336 19.875 0.125009 13.5664 0.125009 5.81249C0.122616 4.47781 0.606149 3.1879 1.4853 2.18367C2.36444 1.17945 3.57908 0.529582 4.90235 0.355454C5.23697 0.314596 5.57584 0.383054 5.86836 0.550609C6.16087 0.718164 6.39136 0.97583 6.5254 1.28514L8.5879 5.88963V5.90135C8.69052 6.13812 8.73291 6.39663 8.71127 6.65377C8.68962 6.91092 8.60463 7.1587 8.46388 7.37499C8.4463 7.40135 8.42774 7.42577 8.40821 7.45018L6.37501 9.86034C7.10645 11.3467 8.66114 12.8877 10.167 13.6211L12.544 11.5986C12.5673 11.579 12.5918 11.5607 12.6172 11.5439C12.8333 11.3998 13.0819 11.3118 13.3406 11.2879C13.5993 11.2641 13.8598 11.3051 14.0986 11.4072L14.1113 11.4131L18.7119 13.4746C19.0218 13.6082 19.2801 13.8384 19.4482 14.131C19.6163 14.4236 19.6852 14.7627 19.6445 15.0976Z" fill="#F1F0F5"/>
</svg>
