<svg width="28" height="21" viewBox="0 0 28 21" fill="none" xmlns="http://www.w3.org/2000/svg">
<path d="M14.625 2.75C14.625 1.3625 15.7375 0.25 17.125 0.25H21.5C22.875 0.25 24 1.375 24 2.75V5.45C22.55 5.9625 21.5 7.3375 21.5 8.9625V11.5H14.625V2.75ZM6.5 8.95V11.5H13.375V2.75C13.375 1.3625 12.2625 0.25 10.875 0.25H6.5C5.125 0.25 4 1.375 4 2.75V5.4375C5.45 5.95 6.5 7.3375 6.5 8.95ZM24.825 6.5375C23.6 6.7375 22.75 7.9 22.75 9.15V12.75H5.25V9C5.25 8.33696 4.98661 7.70107 4.51777 7.23223C4.04893 6.76339 3.41304 6.5 2.75 6.5C2.08696 6.5 1.45107 6.76339 0.982233 7.23223C0.513392 7.70107 0.25 8.33696 0.25 9V15.25C0.25 16.625 1.375 17.75 2.75 17.75V20.25H5.25V17.75H22.75V20.25H25.25V17.75C26.625 17.75 27.75 16.625 27.75 15.25V9C27.75 7.4875 26.3875 6.275 24.825 6.5375Z" fill="#F1F0F5"/>
</svg>
