<svg width="32" height="46" viewBox="0 0 32 46" fill="none" xmlns="http://www.w3.org/2000/svg">
<path d="M26.8464 1.36144C28.5564 -0.241413 31.3571 0.971445 31.3571 3.31573V42.68C31.3571 45.0243 28.5585 46.2372 26.8464 44.6343L16.2671 34.7214C15.5724 34.0705 14.6562 33.7082 13.7042 33.7079H7.24993C5.40289 33.7079 3.63149 32.9741 2.32544 31.6681C1.01938 30.362 0.285645 28.5906 0.285645 26.7436V19.2607C0.285645 17.4137 1.01938 15.6423 2.32544 14.3362C3.63149 13.0302 5.40289 12.2964 7.24993 12.2964H13.7021C14.6556 12.2964 15.5728 11.9322 16.2671 11.2829L26.8464 1.36144Z" fill="#F1F0F5"/>
</svg>
