<svg width="13" height="27" viewBox="0 0 13 27" fill="none" xmlns="http://www.w3.org/2000/svg">
<path d="M10.3751 14.7916V4.45831C10.3751 3.4306 9.96682 2.44498 9.24012 1.71827C8.51342 0.991571 7.5278 0.583313 6.50008 0.583313C5.47237 0.583313 4.48675 0.991571 3.76004 1.71827C3.03334 2.44498 2.62508 3.4306 2.62508 4.45831V14.7916C1.54069 15.6049 0.739678 16.7388 0.335515 18.0326C-0.0686488 19.3265 -0.0554753 20.7147 0.373169 22.0006C0.801813 23.2866 1.6242 24.405 2.72383 25.1976C3.82346 25.9902 5.14459 26.4166 6.50008 26.4166C7.85557 26.4166 9.1767 25.9902 10.2763 25.1976C11.376 24.405 12.1983 23.2866 12.627 22.0006C13.0556 20.7147 13.0688 19.3265 12.6646 18.0326C12.2605 16.7388 11.4595 15.6049 10.3751 14.7916ZM6.50008 3.16665C6.84265 3.16665 7.17119 3.30273 7.41343 3.54497C7.65566 3.7872 7.79175 4.11574 7.79175 4.45831V8.33331H5.20842V4.45831C5.20842 4.11574 5.3445 3.7872 5.58674 3.54497C5.82897 3.30273 6.15751 3.16665 6.50008 3.16665Z" fill="#F1F0F5"/>
</svg>
