<svg width="24" height="20" viewBox="0 0 24 20" fill="none" xmlns="http://www.w3.org/2000/svg">
<path d="M18 20V15H19V14C19 13.45 19.196 12.9793 19.588 12.588C19.98 12.1967 20.4507 12.0007 21 12C21.55 12 22.021 12.196 22.413 12.588C22.805 12.98 23.0007 13.4507 23 14V15H24V20H18ZM20 15H22V14C22 13.7167 21.904 13.4793 21.712 13.288C21.52 13.0967 21.2827 13.0007 21 13C20.7167 13 20.4793 13.096 20.288 13.288C20.0967 13.48 20.0007 13.7173 20 14V15ZM6.35 11.35L4.25 9.2C5.28333 8.16667 6.46667 7.375 7.8 6.825C9.13333 6.275 10.5333 6 12 6C13.4667 6 14.871 6.27933 16.213 6.838C17.555 7.39667 18.734 8.20067 19.75 9.25L17.65 11.35C16.9 10.6 16.0373 10.021 15.062 9.613C14.0867 9.205 13.066 9.00067 12 9C10.9333 9 9.91267 9.20433 8.938 9.613C7.96333 10.0217 7.10067 10.6007 6.35 11.35ZM2.1 7.1L0 5C1.58333 3.38333 3.41267 2.14567 5.488 1.287C7.56333 0.428334 9.734 -0.000665891 12 7.75795e-07C14.2667 7.75795e-07 16.4377 0.429334 18.513 1.288C20.5883 2.14667 22.4173 3.384 24 5L21.9 7.1C20.5833 5.78333 19.0707 4.771 17.362 4.063C15.6533 3.355 13.866 3.00067 12 3C10.1333 3 8.34567 3.35433 6.637 4.063C4.92833 4.77167 3.416 5.784 2.1 7.1ZM12 17L8.475 13.45C8.94167 12.9833 9.47933 12.625 10.088 12.375C10.6967 12.125 11.334 12 12 12C12.6667 12 13.3043 12.125 13.913 12.375C14.5217 12.625 15.059 12.9833 15.525 13.45L12 17Z" fill="#F1F0F5"/>
</svg>
